<svg width="48" height="48" viewBox="0 0 48 48" fill="none" xmlns="http://www.w3.org/2000/svg">
  <rect width="48" height="48" rx="11" fill="#0f172a"/>
  <path d="M11 37V15c0-.9.73-1.6 1.6-1.6.64 0 1.2.36 1.47.93L24 31 33.93 14.33A1.6 1.6 0 0 1 35.4 13.4c.87 0 1.6.72 1.6 1.6V37" stroke="#ffffff" stroke-width="3.6" stroke-linecap="round" stroke-linejoin="round"/>
  <path d="M37 25c3.7-.5 6.8 1 6.8 4.6 0 3.6-2.9 5.6-6.8 5.6-.2-3.6 1.3-6.8 4.1-8.2" fill="#22c55e"/>
  <path d="M38 34c1.7-2 3.6-3.6 5.4-4.4" stroke="#15803d" stroke-width="1" stroke-linecap="round"/>
</svg>
